<svg id="visual" viewBox="0 0 900 600" width="900" height="600" xmlns="http://www.w3.org/2000/svg" xmlns:xlink="http://www.w3.org/1999/xlink" version="1.1"><g fill="#c6abef"><circle r="60" cx="580" cy="292"></circle><circle r="19" cx="86" cy="11"></circle><circle r="21" cx="222" cy="248"></circle><circle r="31" cx="514" cy="22"></circle><circle r="48" cx="835" cy="242"></circle><circle r="21" cx="294" cy="500"></circle><circle r="52" cx="374" cy="45"></circle><circle r="28" cx="54" cy="427"></circle><circle r="51" cx="808" cy="387"></circle><circle r="53" cx="635" cy="14"></circle><circle r="42" cx="395" cy="197"></circle><circle r="38" cx="393" cy="349"></circle><circle r="42" cx="664" cy="566"></circle><circle r="47" cx="461" cy="597"></circle><circle r="18" cx="18" cy="187"></circle><circle r="54" cx="190" cy="96"></circle><circle r="42" cx="871" cy="513"></circle><circle r="26" cx="744" cy="131"></circle><circle r="31" cx="533" cy="471"></circle><circle r="36" cx="112" cy="316"></circle><circle r="28" cx="209" cy="584"></circle><circle r="27" cx="829" cy="22"></circle><circle r="40" cx="530" cy="177"></circle><circle r="41" cx="641" cy="414"></circle><circle r="57" cx="270" cy="366"></circle><circle r="39" cx="43" cy="580"></circle><circle r="53" cx="895" cy="123"></circle><circle r="26" cx="716" cy="289"></circle><circle r="20" cx="783" cy="595"></circle></g></svg>