<?xml version="1.0" standalone="no"?>
<svg xmlns:xlink="http://www.w3.org/1999/xlink" id="wave" style="transform:rotate(0deg); transition: 0.3s" viewBox="0 0 1440 260" version="1.1" xmlns="http://www.w3.org/2000/svg"><defs><linearGradient id="sw-gradient-0" x1="0" x2="0" y1="1" y2="0"><stop stop-color="rgba(14, 11, 19, 1)" offset="0%"/><stop stop-color="rgba(14, 11, 19, 1)" offset="100%"/></linearGradient></defs><path style="transform:translate(0, 0px); opacity:1" fill="url(#sw-gradient-0)" d="M0,156L60,160.3C120,165,240,173,360,186.3C480,199,600,217,720,203.7C840,191,960,147,1080,134.3C1200,121,1320,139,1440,151.7C1560,165,1680,173,1800,160.3C1920,147,2040,113,2160,82.3C2280,52,2400,26,2520,34.7C2640,43,2760,87,2880,95.3C3000,104,3120,78,3240,60.7C3360,43,3480,35,3600,26C3720,17,3840,9,3960,26C4080,43,4200,87,4320,86.7C4440,87,4560,43,4680,52C4800,61,4920,121,5040,130C5160,139,5280,95,5400,78C5520,61,5640,69,5760,95.3C5880,121,6000,165,6120,186.3C6240,208,6360,208,6480,177.7C6600,147,6720,87,6840,78C6960,69,7080,113,7200,108.3C7320,104,7440,52,7560,39C7680,26,7800,52,7920,73.7C8040,95,8160,113,8280,138.7C8400,165,8520,199,8580,216.7L8640,234L8640,260L8580,260C8520,260,8400,260,8280,260C8160,260,8040,260,7920,260C7800,260,7680,260,7560,260C7440,260,7320,260,7200,260C7080,260,6960,260,6840,260C6720,260,6600,260,6480,260C6360,260,6240,260,6120,260C6000,260,5880,260,5760,260C5640,260,5520,260,5400,260C5280,260,5160,260,5040,260C4920,260,4800,260,4680,260C4560,260,4440,260,4320,260C4200,260,4080,260,3960,260C3840,260,3720,260,3600,260C3480,260,3360,260,3240,260C3120,260,3000,260,2880,260C2760,260,2640,260,2520,260C2400,260,2280,260,2160,260C2040,260,1920,260,1800,260C1680,260,1560,260,1440,260C1320,260,1200,260,1080,260C960,260,840,260,720,260C600,260,480,260,360,260C240,260,120,260,60,260L0,260Z"/></svg>