<svg id="visual" viewBox="0 0 900 600" width="900" height="600" xmlns="http://www.w3.org/2000/svg" xmlns:xlink="http://www.w3.org/1999/xlink" version="1.1"><rect x="0" y="0" width="900" height="600" fill="#ffffff"></rect><path d="M0 468L21.5 473.2C43 478.3 86 488.7 128.8 499.5C171.7 510.3 214.3 521.7 257.2 526.3C300 531 343 529 385.8 522.7C428.7 516.3 471.3 505.7 514.2 508.2C557 510.7 600 526.3 642.8 525.2C685.7 524 728.3 506 771.2 496.2C814 486.3 857 484.7 878.5 483.8L900 483L900 601L878.5 601C857 601 814 601 771.2 601C728.3 601 685.7 601 642.8 601C600 601 557 601 514.2 601C471.3 601 428.7 601 385.8 601C343 601 300 601 257.2 601C214.3 601 171.7 601 128.8 601C86 601 43 601 21.5 601L0 601Z" fill="#0a0229" stroke-linecap="round" stroke-linejoin="miter"></path></svg>