<svg id="visual" viewBox="0 0 900 600" width="900" height="600" xmlns="http://www.w3.org/2000/svg" xmlns:xlink="http://www.w3.org/1999/xlink" version="1.1"><path d="M0 483L21.5 492.7C43 502.3 86 521.7 128.8 533.3C171.7 545 214.3 549 257.2 540.3C300 531.7 343 510.3 385.8 498.5C428.7 486.7 471.3 484.3 514.2 489C557 493.7 600 505.3 642.8 514.5C685.7 523.7 728.3 530.3 771.2 529.7C814 529 857 521 878.5 517L900 513L900 601L878.5 601C857 601 814 601 771.2 601C728.3 601 685.7 601 642.8 601C600 601 557 601 514.2 601C471.3 601 428.7 601 385.8 601C343 601 300 601 257.2 601C214.3 601 171.7 601 128.8 601C86 601 43 601 21.5 601L0 601Z" fill="#00ff84" stroke-linecap="round" stroke-linejoin="miter"></path></svg>